<svg width="138" height="47" viewBox="0 0 138 47" fill="none" xmlns="http://www.w3.org/2000/svg">
    <path fill-rule="evenodd" clip-rule="evenodd" d="M49.896 25.28c-.747-7.367-9.063-13.404-18.57-13.486-9.507-.079-16.614 5.832-15.866 13.201.747 7.372 9.062 13.41 18.572 13.486 9.508.082 16.609-5.832 15.864-13.202M18.44 23.435c-.65-5.941 5.524-10.71 13.786-10.643 8.26.065 15.485 4.933 16.132 10.874.651 5.942-5.52 10.71-13.787 10.644-8.257-.066-15.483-4.93-16.131-10.875" fill="#FBB584"/>
    <path fill-rule="evenodd" clip-rule="evenodd" d="M18.19 22.418c-5.443 5.743-5.532 14.573-.203 19.727 5.334 5.156 14.073 4.676 19.515-1.062 5.447-5.74 5.533-14.57.202-19.729-5.331-5.153-14.068-4.674-19.514 1.064m17.347 16.216c-4.68 4.938-12.196 5.347-16.781.912-4.594-4.43-4.516-12.03.17-16.971 4.684-4.937 12.204-5.34 16.788-.912 4.589 4.431 4.511 12.033-.177 16.97" fill="#F89B6C"/>
    <path fill-rule="evenodd" clip-rule="evenodd" d="M9.641 7.101C-.468 15.176-3.038 26.875 3.893 33.235c6.93 6.358 20.744 4.969 30.852-3.109C44.849 22.05 47.42 10.347 40.493 3.99 33.556-2.37 19.746-.977 9.64 7.101m9.042-3.166c9.74-3.687 19.371.043 21.515 8.324 2.144 8.285-4.018 17.987-13.758 21.67-9.74 3.689-19.368-.045-21.515-8.327-2.14-8.28 4.021-17.983 13.758-21.667" fill="#F37321"/>
    <path fill-rule="evenodd" clip-rule="evenodd" d="M76.153 18.427h-2.696V13.6H70.87v13.534h2.587V20.49h2.696v-2.062zm-11.856 5.198c-.484.38-1.068.57-1.749.57s-1.265-.19-1.75-.57c-.486-.38-.727-.855-.727-1.425 0-.556.241-1.024.727-1.404.485-.38 1.069-.57 1.75-.57s1.265.19 1.75.57c.485.38.726.848.726 1.404 0 .57-.241 1.046-.727 1.425zm1.248-8.444H59.55v-1.908h5.996v1.908zm7.998 15.2H63.44c-1.001 0-1.5-.519-1.5-1.558v-1.797h-2.61v2.105c0 2.179 1.16 3.268 3.479 3.268h10.734V30.38zM58.94 24.91c.927.753 2.13 1.13 3.607 1.13 1.478 0 2.68-.377 3.606-1.13.929-.753 1.392-1.656 1.392-2.71 0-1.038-.463-1.933-1.392-2.686-.926-.753-2.128-1.13-3.606-1.13-1.477 0-2.68.377-3.607 1.13-.927.753-1.39 1.648-1.39 2.687 0 1.053.463 1.956 1.39 2.709zm9.453-7.162H56.703V15.86h11.69v1.887zm17.57 5.878c-.487.38-1.07.57-1.75.57-.68 0-1.265-.19-1.75-.57-.485-.38-.728-.855-.728-1.425 0-.556.243-1.024.728-1.404.485-.38 1.07-.57 1.75-.57.68 0 1.263.19 1.75.57.484.38.727.848.727 1.404 0 .57-.243 1.046-.728 1.425zm1.248-8.444h-5.998v-1.908h5.998v1.908zm2.803 2.566h-11.69V15.86h11.69v1.887zm-9.454 7.129c.653.54 1.443.892 2.37 1.053v1.995h-5.02v2.041h10.952c1.536 0 2.696-.351 3.477-1.053v3.531h2.588v-10.44h2.694v-2.085h-2.694v-6.317H92.34v11.275c0 2.033-1.303 3.048-3.91 3.048h-2.892V25.93c.913-.176 1.688-.527 2.327-1.053.898-.746 1.346-1.638 1.346-2.676 0-1.039-.463-1.934-1.39-2.687-.929-.753-2.13-1.13-3.608-1.13-1.477 0-2.68.377-3.607 1.13-.927.753-1.39 1.648-1.39 2.687 0 1.038.45 1.93 1.345 2.676zM114.723 13.6h2.543v9.98h-2.543v-4.3h-1.717v3.84h-2.498V13.6h2.498v3.619h1.717V13.6zm-4.108 12.196c-.998 0-1.81.256-2.434.767-.622.512-.933 1.126-.933 1.843 0 .717.307 1.338.922 1.865.616.526 1.432.789 2.445.789 1.001 0 1.812-.26 2.435-.778.622-.52.934-1.145.934-1.876 0-.717-.314-1.331-.945-1.843-.631-.511-1.439-.767-2.424-.767zm5.955 2.61c0 1.258-.557 2.346-1.673 3.267-1.116.922-2.543 1.383-4.282 1.383-1.724 0-3.147-.46-4.269-1.383-1.123-.92-1.684-2.01-1.684-3.267 0-1.258.561-2.337 1.684-3.236 1.122-.899 2.545-1.349 4.269-1.349 1.739 0 3.166.45 4.282 1.35 1.116.898 1.673 1.977 1.673 3.235zm-11.06-13.775c0 2.339.448 4.021 1.346 5.045.755.848 1.608 1.36 2.564 1.535v2.061a7.653 7.653 0 0 1-4.279-2.017 5.307 5.307 0 0 1-.892-1.075c-.26.409-.559.768-.891 1.075a7.655 7.655 0 0 1-4.282 2.017v-2.06c.957-.176 1.812-.688 2.566-1.537.896-1.023 1.346-2.705 1.346-5.044v-.768h2.522v.768zm29.725 4.738h-3.824v-1.646h3.824v1.646zm-5.855 7.194c.602-.51 1.402-.767 2.401-.767.984 0 1.782.256 2.39.767.609.512.914 1.127.914 1.843 0 .732-.302 1.356-.902 1.876-.602.518-1.402.778-2.402.778-1.014 0-1.818-.263-2.412-.79-.593-.526-.892-1.147-.892-1.864 0-.716.302-1.331.903-1.843zm6.65 5.1c1.094-.929 1.64-2.015 1.64-3.257 0-1.243-.546-2.318-1.64-3.224-1.094-.907-2.511-1.36-4.249-1.36-1.725 0-3.137.453-4.236 1.36-1.102.906-1.653 1.98-1.653 3.224 0 1.242.551 2.328 1.653 3.257 1.099.928 2.511 1.393 4.236 1.393 1.738 0 3.155-.465 4.249-1.393zm-12.485-15.76h5.324v5.045h-4.216c-.738 0-1.108-.41-1.108-1.228v-3.817zm.478 7.041h7.388v-1.557h3.825v2.368h2.587V13.601h-2.587v2.105h-3.825v-.35c0-.966-.47-1.448-1.412-1.448h-9.018v5.834c0 2.135 1.015 3.203 3.042 3.203z" fill="#fff"/>
</svg>
